<svg width="183" height="281" viewBox="0 0 183 281" fill="none" xmlns="http://www.w3.org/2000/svg">
<path d="M144.078 12.3726C149.101 2.22567 161.398 -1.92851 171.545 3.09393C181.691 8.11637 185.846 20.4135 180.823 30.5604L104.342 185.076L79.6425 234.977C74.6201 245.124 62.3229 249.278 52.176 244.255C42.0292 239.233 37.875 226.936 42.8974 216.789L67.3152 167.457L144.078 12.3726Z" fill="#D9D9D9" style="fill:#D9D9D9;fill:color(display-p3 0.8510 0.8510 0.8510);fill-opacity:1;"/>
<path d="M46.5178 212.945C55.2969 205.796 68.2093 207.117 75.3586 215.896C82.5079 224.675 81.1867 237.587 72.4077 244.737L37.8242 272.9L33.7857 276.189C25.0067 283.338 12.0942 282.017 4.94492 273.238C-2.20436 264.459 -0.883187 251.546 7.89586 244.397L11.768 241.244L46.5178 212.945Z" fill="#D9D9D9" style="fill:#D9D9D9;fill:color(display-p3 0.8510 0.8510 0.8510);fill-opacity:1;"/>
</svg>
