<svg width="153" height="296" viewBox="0 0 153 296" fill="none" xmlns="http://www.w3.org/2000/svg">
<path d="M112.617 13.8303C116.333 3.13558 128.015 -2.52198 138.71 1.19379C149.405 4.90957 155.062 16.5916 151.346 27.2863L94.7631 190.144L76.4894 242.739C72.7736 253.434 61.0916 259.091 50.3969 255.376C39.7022 251.66 34.0446 239.978 37.7604 229.283L55.8255 177.288L112.617 13.8303Z" fill="#D9D9D9" style="fill:#D9D9D9;fill:color(display-p3 0.8510 0.8510 0.8510);fill-opacity:1;"/>
<path d="M40.8724 225.017C48.6897 216.827 61.6661 216.526 69.8559 224.343C78.0457 232.16 78.3476 245.137 70.5303 253.326L39.7351 285.589L36.1391 289.356C28.3217 297.546 15.3454 297.848 7.15555 290.031C-1.03426 282.213 -1.33618 269.237 6.48118 261.047L9.92917 257.435L40.8724 225.017Z" fill="#D9D9D9" style="fill:#D9D9D9;fill:color(display-p3 0.8510 0.8510 0.8510);fill-opacity:1;"/>
</svg>
