<svg width="107" height="312" viewBox="0 0 107 312" fill="none" xmlns="http://www.w3.org/2000/svg">
<path d="M65.9073 17.6307C67.7187 6.45474 78.2471 -1.13678 89.4231 0.674599C100.599 2.48598 108.191 13.0143 106.379 24.1903L78.7957 194.377L69.8876 249.339C68.0762 260.515 57.5478 268.106 46.3718 266.295C35.1958 264.484 27.6043 253.955 29.4157 242.779L38.2222 188.445L65.9073 17.6307Z" fill="#D9D9D9" style="fill:#D9D9D9;fill:color(display-p3 0.8510 0.8510 0.8510);fill-opacity:1;"/>
<path d="M31.7435 238.04C38.0277 228.622 50.7566 226.082 60.1743 232.366C69.592 238.65 72.1322 251.379 65.848 260.797L41.0925 297.896L38.2017 302.228C31.9175 311.646 19.1886 314.186 9.77095 307.902C0.353258 301.618 -2.18695 288.889 4.09724 279.471L6.869 275.317L31.7435 238.04Z" fill="#D9D9D9" style="fill:#D9D9D9;fill:color(display-p3 0.8510 0.8510 0.8510);fill-opacity:1;"/>
</svg>
